<?xml version="1.0" encoding="iso-8859-1"?>
<!-- Generator: Adobe Illustrator 19.0.0, SVG Export Plug-In . SVG Version: 6.00 Build 0)  -->
<svg version="1.1" id="Capa_1" xmlns="http://www.w3.org/2000/svg" xmlns:xlink="http://www.w3.org/1999/xlink" x="0px" y="0px"
	 viewBox="0 0 512 512" style="enable-background:new 0 0 512 512;" xml:space="preserve">
<g>
	<g>
		<path d="M336.691,5.026c-4.72-4.726-11.783-6.286-18.051-3.96L94.068,83.923c-4.703,1.737-8.411,5.446-10.149,10.149
			L1.063,318.643c-2.32,6.269-0.771,13.326,3.96,18.051c3.274,3.274,7.657,5.023,12.126,5.023c1.989,0,4-0.349,5.926-1.057
			l224.571-82.857c4.703-1.737,8.411-5.446,10.149-10.149l82.857-224.571C342.971,16.803,341.423,9.758,336.691,5.026z
			 M228.366,228.363L46.103,295.615l67.246-182.263l182.269-67.251L228.366,228.363z"/>
	</g>
</g>
<g>
	<g>
		<path d="M506.977,175.312L336.691,5.026l-24.24,24.24l162.52,162.526l-76.32,206.857l-206.863,76.32L29.263,312.449l-24.24,24.24
			l170.286,170.286c3.274,3.274,7.657,5.023,12.126,5.023c1.989,0,3.994-0.343,5.931-1.057l224.566-82.857
			c4.703-1.731,8.411-5.446,10.149-10.149l82.857-224.566C513.257,187.089,511.709,180.043,506.977,175.312z"/>
	</g>
</g>
<g>
	<g>
		
			<rect x="309.711" y="206.458" transform="matrix(0.7071 -0.7071 0.7071 0.7071 -135.3904 326.8531)" width="34.28" height="240.798"/>
	</g>
</g>
<g>
</g>
<g>
</g>
<g>
</g>
<g>
</g>
<g>
</g>
<g>
</g>
<g>
</g>
<g>
</g>
<g>
</g>
<g>
</g>
<g>
</g>
<g>
</g>
<g>
</g>
<g>
</g>
<g>
</g>
</svg>
