<svg height="512pt" viewBox="0 0 512 512" width="512pt" xmlns="http://www.w3.org/2000/svg"><path d="m256 512c-141.160156 0-256-114.839844-256-256s114.839844-256 256-256 256 114.839844 256 256-114.839844 256-256 256zm0-494.933594c-131.746094 0-238.933594 107.1875-238.933594 238.933594s107.1875 238.933594 238.933594 238.933594 238.933594-107.1875 238.933594-238.933594-107.1875-238.933594-238.933594-238.933594zm0 0"/><path d="m284.980469 438.664062c-11.597657 0-22.511719-6.980468-27.035157-18.296874l-9.351562-23.378907c-.488281-1.203125-.886719-2.457031-1.210938-3.738281l-16.179687-64.726562c-.214844-.851563-.523437-1.671876-.914063-2.457032l-8.6875-17.363281c-2.535156-5.078125-8.140624-7.621094-13.660156-6.289063l-8.261718 2.0625c-8.761719 2.1875-18.191407.136719-25.234376-5.503906l-27.007812-21.597656c-6.9375-5.5625-10.914062-13.839844-10.914062-22.714844v-9.140625c0-6.101562 1.878906-11.9375 5.421874-16.894531l32.6875-45.765625c5.453126-7.636719 14.304688-12.183594 23.671876-12.183594h17.863281c5.289062 0 10.46875 1.441407 14.972656 4.15625l30.953125 18.566407c2.566406 1.554687 5.605469 2.082031 8.539062 1.484374l18.511719-3.710937c13.421875-2.6875 27.058594 4.496094 32.441407 17.074219l16.410156 38.289062c.992187 2.304688 2.714844 4.285156 4.855468 5.554688l16.8125 10.097656c7.191407 4.316406 12.175782 11.535156 13.660157 19.789062 1.484375 8.269532-.671875 16.765626-5.914063 23.320313l-14.933594 18.671875c-1.695312 2.125-2.636718 4.796875-2.636718 7.507812v26.941407c0 7.660156-3.105469 15.164062-8.523438 20.574219l-9.25 9.25c-.699218.699218-1.304687 1.476562-1.808594 2.3125l-20.386718 33.980468c-3.566406 5.9375-9.15625 10.425782-15.734375 12.617188-3.011719 1.035156-6.109375 1.511718-9.15625 1.511718zm-74.003907-153.695312c10.804688 0 20.855469 6.019531 25.898438 16.105469l8.6875 17.363281c.949219 1.894531 1.691406 3.902344 2.203125 5.957031l16.179687 64.726563c.128907.519531.296876 1.023437.496094 1.519531l9.359375 23.40625c2.363281 5.886719 8.917969 8.933594 14.96875 6.9375 2.710938-.914063 5.023438-2.765625 6.507813-5.230469l20.378906-33.972656c1.21875-2.023438 2.6875-3.90625 4.371094-5.589844l9.257812-9.265625c2.242188-2.238281 3.523438-5.335937 3.523438-8.5v-26.941406c0-6.578125 2.261718-13.019531 6.375-18.164063l14.941406-18.671874c2.203125-2.75 3.0625-6.171876 2.449219-9.636719-.625-3.464844-2.628907-6.371094-5.648438-8.183594l-16.804687-10.085937c-5.261719-3.148438-9.332032-7.808594-11.765625-13.472657l-16.417969-38.296875c-2.226562-5.199218-7.859375-8.148437-13.40625-7.058594l-18.515625 3.710938c-7.117187 1.445312-14.457031.148438-20.679687-3.582031l-30.964844-18.578125c-1.871094-1.125-4.003906-1.714844-6.1875-1.714844h-17.859375c-3.875 0-7.527344 1.886719-9.78125 5.035156l-32.691407 45.765625c-1.464843 2.046875-2.242187 4.460938-2.242187 6.980469v9.136719c0 3.671875 1.644531 7.09375 4.511719 9.394531l27 21.589844c2.910156 2.332031 6.820312 3.199218 10.4375 2.28125l8.25-2.058594c2.390625-.613281 4.796875-.90625 7.167968-.90625zm0 0"/><path d="m384 426.667969c-2.253906 0-4.421875-.890625-6.03125-2.5l-17.070312-17.066407c-2.011719-2.015624-2.890626-4.910156-2.328126-7.707031l8.535157-42.667969c.332031-1.644531 1.140625-3.164062 2.328125-4.359374l25.601562-25.601563c2.226563-2.226563 5.503906-3.054687 8.507813-2.132813 3.011719.90625 5.273437 3.40625 5.886719 6.496094l8.53125 42.664063c.417968 2.082031.042968 4.242187-1.046876 6.070312l-25.601562 42.664063c-1.347656 2.253906-3.667969 3.753906-6.269531 4.078125-.351563.035156-.703125.0625-1.042969.0625zm-7.808594-28.410157 6.109375 6.121094 18.28125-30.464844-4.761719-23.800781-12.503906 12.503907zm0 0"/><path d="m477.832031 237.074219c-13.40625 0-25.402343-9.199219-28.800781-22.65625-2.003906-7.953125-4.511719-14.773438-7.441406-20.285157-1.859375-3.5-5.203125-5.734374-9.1875-6.144531-4.363282-.433593-8.613282 1.339844-11.4375 4.753907-17.175782 20.761718-33.910156 30.363281-49.78125 28.570312-19.234375-2.203125-28.570313-20.445312-28.960938-21.222656-39.546875-79.097656-110.191406-72.261719-110.890625-72.132813-.316406.035157-.625.050781-.941406.050781-4.742187 0-10.007813 1.144532-15.632813 3.386719-18.859374 7.546875-39.695312 1.886719-51.855468-14.070312-11.914063-15.648438-11.84375-35.992188.179687-51.8125l.988281-1.289063c5.992188-7.699218 15.15625-12.597656 25.121094-13.40625 32.171875-2.613281 56.089844-18.089844 71.101563-46.011718 1.550781-2.894532 4.640625-4.660157 7.917969-4.480469 124.570312 5.855469 226.226562 99.890625 241.714843 223.597656.554688 4.457031-2.429687 8.585937-6.84375 9.429687-6.902343 1.339844-14.089843 2.511719-21.359375 3.472657-1.304687.164062-2.609375.25-3.890625.25zm-46.746093-66.21875c1.015624 0 2.03125.058593 3.046874.160156 9.746094.992187 17.953126 6.503906 22.527344 15.105469 3.578125 6.722656 6.582032 14.839844 8.917969 24.113281 1.605469 6.351563 7.570313 10.515625 13.882813 9.667969 4.175781-.554688 8.320312-1.183594 12.390624-1.867188-17.457031-109.78125-108.046874-192.769531-219.238281-200.371094-13.105469 21.878907-37.589843 46.539063-82.03125 50.160157-5.210937.425781-9.964843 2.933593-13.046875 6.894531l-.84375 1.089844c-8.824218 11.605468-5.878906 23.707031-.203125 31.171875 5.75 7.554687 17.558594 14.339843 31.9375 8.570312 7.492188-2.996093 14.738281-4.539062 21.539063-4.609375 3.449218-.316406 22.84375-1.519531 46.957031 6.878906 23.878906 8.3125 57.242187 27.996094 80.566406 74.640626.023438.058593 5.707031 10.835937 15.734375 11.914062 9.632813 1.203125 21.5625-6.742188 34.59375-22.503906 5.8125-7.023438 14.335938-11.015625 23.269532-11.015625zm0 0"/><path d="m30.632812 238.933594h-20.785156c-2.414062 0-4.71875-1.023438-6.332031-2.816406-1.613281-1.792969-2.398437-4.179688-2.148437-6.585938 4.929687-47.96875 23.363281-93.457031 53.324218-131.570312 2.5-3.179688 6.894532-4.171876 10.519532-2.351563l32.035156 16.015625c13.386718 6.699219 22.859375 19.515625 25.316406 34.285156l.660156 3.902344c3.402344 20.460938-6.769531 40.445312-25.320312 49.722656l-16.691406 8.34375c-4.640626 2.324219-8.617188 5.839844-11.503907 10.15625-8.726562 13.082032-23.328125 20.898438-39.074219 20.898438zm-11.144531-17.066406h11.144531c10.019532 0 19.320313-4.976563 24.875-13.3125 4.523438-6.792969 10.777344-12.304688 18.074219-15.957032l16.691407-8.347656c11.8125-5.894531 18.289062-18.625 16.121093-31.648438l-.65625-3.898437c0-.011719 0-.011719 0-.011719-1.570312-9.402344-7.597656-17.550781-16.121093-21.816406l-25.71875-12.859375c-23.59375 31.863281-38.820313 68.84375-44.410157 107.851563zm0 0"/><path d="m104.378906 460.039062c-1.867187 0-3.710937-.605468-5.238281-1.789062-55.910156-43.4375-91.648437-108.597656-98.03125-178.773438-.339844-3.6875 1.742187-7.160156 5.136719-8.621093l8.933594-3.832031c17.878906-7.660157 38.316406-3.71875 52.070312 10.035156l15.8125 15.8125c4.234375 4.234375 9.574219 7.09375 15.445312 8.269531 22.035157 4.414063 38.015626 23.910156 38.015626 46.378906v2.363281c0 12.859376-3.761719 25.300782-10.894532 35.984376-4.226562 6.332031-6.894531 13.6875-7.742187 21.242187l-5.035157 45.34375c-.339843 3.066406-2.3125 5.71875-5.152343 6.921875-1.066407.445312-2.191407.664062-3.320313.664062zm-85.632812-175.972656c6.828125 58.019532 35.132812 111.929688 78.902344 150.765625l3.285156-29.617187c1.140625-10.257813 4.769531-20.226563 10.496094-28.828125 5.253906-7.875 8.027343-17.039063 8.027343-26.511719v-2.363281c0-14.363281-10.214843-26.828125-24.300781-29.644531-9.191406-1.835938-17.554688-6.308594-24.167969-12.9375l-15.8125-15.8125c-8.796875-8.78125-21.851562-11.304688-33.277343-6.417969zm0 0"/></svg>